<svg width="65" height="65" viewBox="0 0 65 65" fill="none" xmlns="http://www.w3.org/2000/svg">
<rect width="65" height="65" rx="10" fill="#FBFAFF"/>
<path d="M35.4182 38.74L37.5823 34.7336C35.2734 34.2817 33.1732 33.0933 31.5968 31.3467C30.209 31.6778 28.7617 31.6679 27.3785 31.3177C25.9954 30.9675 24.7177 30.2874 23.6547 29.3358C22.5917 28.3841 21.775 27.1891 21.2746 25.853C20.7741 24.5169 20.6047 23.0794 20.7809 21.6636C20.9571 20.2477 21.4736 18.8956 22.2863 17.7229C23.099 16.5503 24.1837 15.5919 25.4475 14.9298C26.7114 14.2677 28.1168 13.9216 29.5435 13.9211C30.9703 13.9205 32.376 14.2656 33.6403 14.9268C34.3944 14.4237 35.2077 14.0157 36.0618 13.712C36.699 13.4863 37.3563 13.322 38.0248 13.2213C35.7814 11.2279 32.9072 10.0891 29.9073 10.005C26.9075 9.92091 23.974 10.8969 21.6224 12.7614C19.2709 14.6259 17.6518 17.2597 17.0498 20.1997C16.4477 23.1397 16.9012 26.1979 18.3306 28.8366L23.6806 38.74C18.3709 40.0836 15 43.0763 15 46.5437C15.4562 57.8147 43.6362 57.8228 44.0907 46.5437C44.0907 43.0763 40.7279 40.0836 35.4182 38.74ZM27.7674 46.2943C27.9445 46.6114 28.203 46.8755 28.5163 47.0594C28.8295 47.2432 29.1862 47.3402 29.5494 47.3402C29.9126 47.3402 30.2692 47.2432 30.5825 47.0594C30.8957 46.8755 31.1543 46.6114 31.3314 46.2943L32.9645 43.2694C41.5566 45.1817 37.9299 50.1044 29.5454 50.1639C24.6057 50.1639 21.1625 48.2573 21.1625 46.5437C21.1625 45.2002 23.222 43.8647 26.1343 43.2694L27.7674 46.2943ZM29.5454 53.4463C22.5382 53.4463 16.609 50.2846 16.609 46.5437C16.609 43.8084 19.7466 41.2984 24.477 40.2123L25.3378 41.7971C15.0322 44.5011 19.7248 51.9226 29.5454 51.7729C39.3796 51.921 44.0706 44.5003 33.7609 41.8052L34.6218 40.2123C39.3522 41.2984 42.4817 43.8084 42.4817 46.5437C42.4817 50.2846 36.5606 53.4463 29.5454 53.4463Z" fill="#838383"/>
<path d="M39.6981 14.7017C37.2281 14.7044 34.8602 15.6868 33.1136 17.4333C31.3671 19.1799 30.3847 21.5478 30.382 24.0178C30.9057 36.3829 48.5025 36.3709 49.0222 24.0178C49.0188 21.5466 48.0351 19.1778 46.287 17.4312C44.5389 15.6846 42.1692 14.7029 39.6981 14.7017ZM43.439 26.6163C43.5905 26.7667 43.676 26.9712 43.6768 27.1847C43.6775 27.3981 43.5934 27.6032 43.443 27.7547C43.2926 27.9062 43.0882 27.9917 42.8747 27.9925C42.6612 27.9932 42.4561 27.9091 42.3047 27.7587L39.7061 25.1521L37.0995 27.7587C36.948 27.9091 36.743 27.9932 36.5295 27.9925C36.316 27.9917 36.1116 27.9062 35.9612 27.7547C35.8107 27.6032 35.7267 27.3981 35.7274 27.1847C35.7282 26.9712 35.8137 26.7667 35.9652 26.6163L38.5637 24.0178L35.9652 21.4112C35.8148 21.2608 35.7303 21.0568 35.7303 20.844C35.7303 20.6313 35.8148 20.4273 35.9652 20.2768C36.1156 20.1264 36.3196 20.0419 36.5324 20.0419C36.7451 20.0419 36.9491 20.1264 37.0995 20.2768L39.7061 22.8834L42.3047 20.2768C42.4551 20.1264 42.6591 20.0419 42.8718 20.0419C43.0846 20.0419 43.2886 20.1264 43.439 20.2768C43.5894 20.4273 43.6739 20.6313 43.6739 20.844C43.6739 21.0568 43.5894 21.2608 43.439 21.4112L40.8405 24.0178L43.439 26.6163Z" fill="#838383"/>
<path d="M22.3209 22.7546C22.3246 23.7837 22.5475 24.8003 22.9746 25.7366C23.4018 26.6729 24.0234 27.5075 24.7982 28.1849C25.573 28.8622 26.4832 29.3668 27.4682 29.6651C28.4531 29.9633 29.4903 30.0484 30.5107 29.9146C29.127 27.7675 28.5413 25.2025 28.8559 22.6676C29.1706 20.1326 30.3656 17.7887 32.2324 16.0451C31.1355 15.6167 29.9509 15.4613 28.7807 15.5922C27.6104 15.7231 26.4895 16.1363 25.5143 16.7965C24.5392 17.4566 23.739 18.3438 23.1827 19.3817C22.6265 20.4195 22.3307 21.5771 22.3209 22.7546Z" fill="#838383"/>
</svg>
