<svg width="65" height="65" viewBox="0 0 65 65" fill="none" xmlns="http://www.w3.org/2000/svg">
<rect width="65" height="65" rx="10" fill="#FBFAFF"/>
<path d="M10.627 32.0589C10.1326 32.241 9.87768 32.7891 10.0578 33.2855L10.6596 34.9414L15.2421 30.3588L10.627 32.0589ZM14.9642 46.7782L17.7241 54.3679C17.7668 54.4864 17.8327 54.5952 17.918 54.688C18.0032 54.7808 18.106 54.8557 18.2205 54.9083C18.3471 54.9673 18.4851 54.9981 18.6248 54.9985C18.7379 54.9985 18.8491 54.9793 18.9564 54.9391L22.0019 53.816L14.9642 46.7782ZM55.9407 40.2983L52.7822 31.6143L45.2022 39.1943L48.9587 37.8105C49.4513 37.6227 50.007 37.8795 50.1891 38.3778C50.3731 38.8742 50.1182 39.4262 49.6218 39.6083L44.8495 41.3677C44.7434 41.407 44.6311 41.4271 44.5179 41.4271C44.1288 41.4271 43.7608 41.1875 43.619 40.8004C43.6172 40.7946 43.619 40.7889 43.6172 40.7831L35.5848 48.8155L55.3715 41.5248C55.8679 41.3428 56.1228 40.7946 55.9407 40.2983ZM55.7184 24.613L40.3857 9.2803C40.012 8.90657 39.4044 8.90657 39.0307 9.2803L10.282 38.029C9.90823 38.4027 9.90823 39.0103 10.282 39.3841L25.6146 54.7167C25.7031 54.8062 25.8085 54.8772 25.9246 54.9256C26.0408 54.9739 26.1654 54.9987 26.2912 54.9985C26.5366 54.9985 26.7818 54.9046 26.9697 54.7186L55.7184 25.9699C55.8979 25.7897 55.9987 25.5458 55.9987 25.2914C55.9987 25.0371 55.8979 24.7931 55.7184 24.613ZM21.2199 35.5528L17.3868 39.3859C17.2064 39.5651 16.9625 39.6656 16.7083 39.6656C16.4541 39.6656 16.2102 39.5651 16.0298 39.3859C15.6561 39.0122 15.6561 38.4046 16.0298 38.0309L19.863 34.1977C20.2367 33.824 20.8443 33.824 21.2181 34.1977C21.5918 34.5715 21.5937 35.1771 21.2199 35.5528ZM37.7696 36.7698C37.0911 37.4483 36.1693 37.7741 35.1438 37.7741C33.4496 37.7741 31.4698 36.8868 29.8138 35.2289C28.6025 34.0176 27.7516 32.5686 27.42 31.1504C27.0521 29.5692 27.3549 28.1932 28.2729 27.2732C29.191 26.3533 30.567 26.0504 32.1501 26.4204C33.5684 26.752 35.0173 27.6009 36.2286 28.8141C38.8908 31.4743 39.5692 34.9701 37.7696 36.7698ZM49.9686 25.9699L46.1355 29.8031C45.9551 29.9823 45.7112 30.0828 45.457 30.0828C45.2028 30.0828 44.9589 29.9823 44.7785 29.8031C44.4048 29.4294 44.4048 28.8218 44.7785 28.448L48.6117 24.6149C48.9854 24.2411 49.593 24.2411 49.9668 24.6149C50.3405 24.9886 50.3424 25.5943 49.9686 25.9699Z" fill="#838383"/>
</svg>
