<svg width="65" height="65" viewBox="0 0 65 65" fill="none" xmlns="http://www.w3.org/2000/svg">
<rect width="65" height="65" rx="10" fill="#FBFAFF"/>
<path d="M45.4615 15.9231C45.4615 11.9761 40.1043 9 33 9C25.8957 9 20.5385 11.9761 20.5385 15.9231C20.5385 16.6879 21.1584 17.3077 21.9231 17.3077H44.0769C44.8416 17.3077 45.4615 16.6879 45.4615 15.9231ZM29.9802 48.1962L31.0997 46.7037L29.4795 45.3659L29.9802 48.1962ZM34.6084 56.2615L35.3588 51.9285L33 48.7835L30.641 51.9287L31.3914 56.2615H34.6084ZM36.5202 45.3663L34.9003 46.7037L36.0194 48.1959L36.5202 45.3663ZM25.6564 39.6485L24.9154 39.7701C19.1701 40.7099 15 45.5886 15 51.3717V56.2615H28.5803L25.6564 39.6485ZM51 51.3717C51 45.5886 46.8299 40.7099 41.0846 39.7701L40.3431 39.6485L37.4195 56.2615H51V51.3717ZM37.5874 39.3358C36.9963 39.456 36.3965 39.5538 35.7692 39.5538H30.2308C29.6034 39.5538 29.0034 39.456 28.4123 39.3358L28.7349 41.1592L33 44.6813L37.2645 41.1597L37.5874 39.3358ZM30.2308 36.7846H35.7692C39.5864 36.7846 42.6923 33.6787 42.6923 29.8615V26.2298C41.8745 26.7067 40.9363 27 39.9231 27H26.0769C25.0637 27 24.1255 26.7067 23.3077 26.2298V29.8615C23.3077 33.6787 26.4136 36.7846 30.2308 36.7846ZM26.0769 24.2308H39.9231C41.4525 24.2308 42.6923 22.991 42.6923 21.4615V20.0769H23.3077V21.4615C23.3077 22.991 24.5475 24.2308 26.0769 24.2308Z" fill="#838383"/>
</svg>
